<svg width="200" height="200" viewBox="0 0 200 200" fill="none" xmlns="http://www.w3.org/2000/svg">
<path fill-rule="evenodd" clip-rule="evenodd" d="M77.625 63.2C101.625 32.3583 139.125 12.5 181.25 12.5C182.908 12.5 184.497 13.1585 185.669 14.3306C186.842 15.5027 187.5 17.0924 187.5 18.75C187.5 60.8833 167.642 98.375 136.8 122.383C138.083 130.419 137.607 138.637 135.405 146.47C133.203 154.304 129.328 161.566 124.047 167.757C118.766 173.947 112.205 178.918 104.816 182.327C97.4274 185.736 89.3871 187.5 81.25 187.5C79.5924 187.5 78.0027 186.842 76.8306 185.669C75.6585 184.497 75 182.908 75 181.25V146.825C66.8994 140.428 59.5771 133.103 53.1833 125H18.75C17.0924 125 15.5027 124.342 14.3306 123.169C13.1585 121.997 12.5 120.408 12.5 118.75C12.4993 110.612 14.2645 102.571 17.6735 95.1816C21.0826 87.7922 26.0544 81.2304 32.2459 75.9493C38.4374 70.6681 45.7011 66.7932 53.5356 64.5921C61.3702 62.391 69.589 61.916 77.625 63.2ZM125 56.25C120.027 56.25 115.258 58.2254 111.742 61.7417C108.225 65.2581 106.25 70.0272 106.25 75C106.25 79.9728 108.225 84.7419 111.742 88.2582C115.258 91.7746 120.027 93.75 125 93.75C129.973 93.75 134.742 91.7746 138.258 88.2582C141.775 84.7419 143.75 79.9728 143.75 75C143.75 70.0272 141.775 65.2581 138.258 61.7417C134.742 58.2254 129.973 56.25 125 56.25Z" fill="white"/>
<path d="M43.8334 143.683C44.4916 143.193 45.0468 142.577 45.4671 141.872C45.8874 141.166 46.1647 140.385 46.2831 139.572C46.4015 138.76 46.3587 137.932 46.1571 137.136C45.9556 136.34 45.5992 135.592 45.1084 134.933C44.6176 134.275 44.0019 133.72 43.2966 133.3C42.5912 132.879 41.81 132.602 40.9975 132.484C40.1849 132.365 39.3571 132.408 38.5611 132.61C37.7651 132.811 37.0166 133.168 36.3584 133.658C29.9658 138.414 24.9951 144.826 21.9841 152.202C18.973 159.579 18.0362 167.638 19.2751 175.508C19.4765 176.819 20.0898 178.032 21.0261 178.971C21.9624 179.911 23.1732 180.528 24.4834 180.733C32.3545 181.971 40.4143 181.033 47.7907 178.021C55.167 175.008 61.5792 170.036 66.3334 163.642C66.84 162.985 67.2109 162.234 67.4245 161.433C67.6381 160.632 67.6902 159.796 67.5775 158.975C67.4649 158.153 67.1899 157.362 66.7686 156.648C66.3473 155.934 65.788 155.31 65.1234 154.814C64.4588 154.318 63.7022 153.96 62.8976 153.759C62.0929 153.558 61.2564 153.52 60.4368 153.646C59.6171 153.772 58.8307 154.059 58.1234 154.492C57.416 154.925 56.8019 155.494 56.3167 156.167C53.4106 160.075 49.6298 163.249 45.2771 165.434C40.9243 167.619 36.1205 168.755 31.2501 168.75C31.2501 158.5 36.1834 149.392 43.8334 143.683Z" fill="white"/>
</svg>
