<svg width="23" height="24" viewBox="0 0 23 24" fill="none" xmlns="http://www.w3.org/2000/svg">
<path d="M9.84043 5.84344C11.2719 5.77787 11.737 5.57442 13.1789 6.16393C14.4014 6.66274 15.7661 8.0599 16.7031 8.99686C18.7719 11.065 20.2554 12.9107 23.0093 14.0971C22.5332 15.1536 21.1121 16.0617 20.0416 16.4435L18.1873 17.014C16.8906 17.5392 15.5418 18.7335 14.8488 19.9395H14.6631C14.0889 18.6072 12.7512 16.2364 11.6028 15.3956C11.8038 14.9709 11.968 14.8318 12.3443 14.561C13.201 15.4171 14.4793 16.8246 14.8488 17.992C15.4793 17.405 16.1123 16.8032 16.8887 16.4128L19.8565 15.3766L21.2475 14.6535V14.4685C18.7639 13.3587 16.0327 9.30815 13.8285 7.76515C12.3933 6.76017 11.9723 7.10517 10.8607 6.55121C10.5114 6.37718 10.0525 6.17373 9.84043 5.84344ZM6.22436 6.04811C5.66856 5.9568 5.24144 5.59403 4.89154 5.1755C4.76469 5.02414 4.58576 4.82314 4.49568 4.65217C3.78545 3.31445 4.11146 1.39274 5.40996 0.529934C7.33473 -0.748347 10.2651 0.387153 10.2939 2.84996C10.3055 3.85309 10.2075 4.67117 9.42129 5.40223C9.12041 5.68227 8.71903 5.81464 8.43347 6.10633C10.3901 6.38208 11.479 7.87116 12.7383 9.18743C13.3162 9.79165 14.035 10.3769 14.0711 11.2807C14.1042 12.1031 13.5031 12.6074 12.9687 13.1418L11.6316 14.5371C11.3963 14.7724 10.7553 15.3184 10.7345 15.642L11.0243 17.0955L11.2566 18.0839L11.6837 20.0608C11.8259 20.646 12.0312 21.3176 12.0385 21.9212C12.0428 22.3232 12.0263 22.7301 11.8063 23.0843C11.1328 24.1708 9.54017 24.3215 8.68532 23.3692C8.25515 22.8906 8.14546 22.2944 8.01432 21.689L7.52531 19.5375C7.43033 19.1532 7.38743 18.7929 7.21279 18.4326L6.74094 20.4095C6.52401 21.3244 6.38981 22.7754 5.69981 23.4275C4.78798 24.2903 3.35221 24.1775 2.68121 23.0843C2.49185 22.7754 2.37113 22.4023 2.39197 22.0376C2.42506 21.4555 2.62422 20.7514 2.75597 20.1772L3.40001 17.3277L3.63226 16.2811C3.68557 16.0862 3.79955 15.7798 3.75482 15.5837C3.6917 15.3061 3.13222 14.8257 2.91958 14.5959L1.22399 12.8507C0.94701 12.5743 0.400401 12.0345 0.247817 11.6876C-0.189103 10.7004 0.720278 10.0398 1.33981 9.42029C2.3932 8.36691 3.3228 7.27063 4.65439 6.56469C5.24696 6.25033 5.65937 6.25585 6.22436 6.04811ZM7.09636 1.23893C6.52646 1.32534 6.0252 1.47241 5.68327 1.97796C4.80085 3.28259 5.7378 5.14853 7.38682 4.99166C7.87093 4.9457 8.3152 4.77841 8.64672 4.41441C9.24787 3.77711 9.21845 2.45164 8.64672 1.81312C8.27905 1.41603 7.62397 1.20094 7.09636 1.23893ZM7.21279 7.19403C6.25622 7.22344 5.25247 7.54699 4.47975 8.11137C3.96684 8.4864 3.11016 9.39701 2.61931 9.8854L1.69155 10.7574C1.55919 10.8983 1.38209 11.0705 1.46359 11.2807C1.52794 11.4462 2.1107 11.9934 2.27064 12.1533L4.18928 14.1302C4.50977 14.4513 4.97794 14.9372 5.03984 15.4091C5.07599 15.6812 4.7604 16.9245 4.67584 17.2695L3.82038 20.991C3.69476 21.5707 3.31973 22.7332 4.3051 22.7338C5.08457 22.7338 5.11214 21.9782 5.26902 21.3979L5.49698 20.293L5.88181 18.8395L6.38185 16.9208C6.46825 16.6169 6.6625 15.7339 6.79609 15.5261C6.92171 15.3313 7.14355 15.1664 7.38682 15.2148C7.8458 15.3068 7.91198 15.7933 7.99777 16.1653L8.13504 16.688L8.8612 19.8279L9.18843 21.2815C9.34101 21.8556 9.43906 23.0255 10.3521 22.7209C10.4483 22.6884 10.55 22.6394 10.6273 22.5726C10.8068 22.4157 10.8221 22.2031 10.8154 21.9794C10.8062 21.6877 10.6334 20.8838 10.5513 20.5841L10.3589 19.7115L9.7908 17.2113L9.43232 15.4673C9.43661 14.9887 9.88578 14.58 10.1879 14.246L11.5146 12.9089L12.041 12.3274C12.2334 12.1258 12.7169 11.695 12.8002 11.4554C12.8719 11.2495 12.7567 11.0405 12.6421 10.8738C12.3952 10.5141 11.9999 10.1385 11.6898 9.82719C10.9674 9.10103 10.2351 8.16224 9.30608 7.68365C8.57073 7.30494 8.01616 7.23263 7.21279 7.19403ZM9.88701 9.39578C10.3981 9.32715 10.7198 9.76101 11.025 10.1183C11.2811 10.4173 11.5391 10.6943 11.5679 11.1067C11.582 11.312 11.5501 11.5026 11.457 11.6876C11.2627 12.0774 10.5507 12.7226 10.1199 12.8194C9.79999 12.8918 9.47766 12.7631 9.36062 12.4438C9.28954 12.2624 9.36368 11.8083 9.36062 11.5718L9.41209 10.2923C9.43109 10.0974 9.40658 9.89337 9.4985 9.71198C9.59532 9.52079 9.69949 9.46932 9.88701 9.39578ZM4.36332 9.5116C4.72302 9.45461 5.03432 9.56185 5.14462 9.94362C5.1912 10.1054 5.17771 10.5123 5.17771 10.6992V12.0369C5.17526 12.4769 5.04167 12.9659 4.47975 12.8868C4.20951 12.8489 3.92885 12.627 3.72418 12.4579C3.34731 12.1466 2.86811 11.7042 2.92142 11.1643C2.97964 10.5748 3.83877 9.71443 4.36332 9.5116Z" fill="white"/>
</svg>
