<svg viewBox="0 0 30 30" xmlns="http://www.w3.org/2000/svg">
<path fill-rule="evenodd" clip-rule="evenodd" d="M18.1799 6.29248L15.2399 4.90248C15.0899 4.83248 14.9199 4.83248 14.7699 4.90248L11.8199 6.29248C11.3999 6.49248 11.2099 7.00248 11.4099 7.42248C11.5499 7.73248 11.8599 7.91248 12.1799 7.91248C12.2999 7.91248 12.4199 7.88248 12.5399 7.83248L14.1499 7.07248V9.14248C14.1499 9.61248 14.5299 9.99248 14.9999 9.99248C15.4699 9.99248 15.8499 9.61248 15.8499 9.14248V7.07248L17.4599 7.83248C17.8799 8.03248 18.3899 7.85248 18.5899 7.42248C18.7899 6.99248 18.6099 6.49248 18.1799 6.29248ZM17.46 12.0225L15 13.1825L12.54 12.0225C12.12 11.8225 11.61 12.0025 11.41 12.4325C11.21 12.8525 11.39 13.3625 11.82 13.5625L14.12 14.6425C14.12 14.6625 14.115 14.68 14.11 14.6975C14.105 14.715 14.1 14.7325 14.1 14.7525V16.8325C14.1 17.3025 14.48 17.6825 14.95 17.6825C15.42 17.6825 15.8 17.3025 15.8 16.8325V14.7525C15.8 14.7425 15.7975 14.7325 15.795 14.7225C15.7925 14.7125 15.79 14.7025 15.79 14.6925L18.19 13.5625C18.61 13.3625 18.8 12.8525 18.6 12.4325C18.39 12.0125 17.88 11.8225 17.46 12.0225ZM21.3499 7.85248L23.9799 9.11248C24.18 9.20248 24.2999 9.40248 24.2999 9.61248V12.6425C24.2999 13.1125 23.92 13.4925 23.45 13.4925C22.9799 13.4925 22.5999 13.1125 22.5999 12.6425V11.5225L21.21 12.1725C21.09 12.2225 20.9699 12.2525 20.8499 12.2525C20.53 12.2525 20.22 12.0725 20.08 11.7625C19.88 11.3425 20.07 10.8325 20.49 10.6325L21.8699 9.98248L20.62 9.38248C20.2 9.18248 20.02 8.67248 20.22 8.25248C20.42 7.83248 20.9299 7.65248 21.3499 7.85248ZM9.50995 10.6325L8.12995 9.98247L9.37995 9.38247C9.79995 9.18247 9.97995 8.67247 9.77995 8.25247C9.57995 7.82247 9.06995 7.64247 8.64995 7.85247L6.01995 9.11247C5.81995 9.20247 5.69995 9.40247 5.69995 9.61247V12.6325C5.69995 13.1025 6.07995 13.4825 6.54995 13.4825C7.01995 13.4825 7.39995 13.1125 7.39995 12.6425V11.5125L8.78995 12.1625C8.90995 12.2225 9.02995 12.2525 9.14995 12.2525C9.46995 12.2525 9.77995 12.0725 9.91995 11.7625C10.12 11.3425 9.93995 10.8325 9.50995 10.6325ZM22.6 17.5125C22.6 17.0425 22.98 16.6625 23.45 16.6625C23.92 16.6625 24.3 17.0425 24.31 17.5125V20.5325C24.31 20.7525 24.18 20.9525 23.99 21.0425L21.36 22.3025C21.24 22.3525 21.11 22.3825 20.99 22.3825C20.67 22.3825 20.37 22.2025 20.22 21.9025C20.02 21.4825 20.2 20.9725 20.62 20.7725L21.87 20.1725L20.49 19.5225C20.06 19.3225 19.88 18.8225 20.08 18.3925C20.28 17.9625 20.79 17.7825 21.21 17.9825L22.6 18.6325V17.5125ZM9.91995 18.3825C9.71995 17.9625 9.20995 17.7725 8.78995 17.9725L7.39995 18.6325V17.5125C7.39995 17.0425 7.01995 16.6625 6.54995 16.6625C6.07995 16.6625 5.69995 17.0425 5.69995 17.5125V20.5425C5.69995 20.7525 5.81995 20.9525 6.00995 21.0425L8.63995 22.3025C8.75995 22.3625 8.87995 22.3825 9.00995 22.3825C9.32995 22.3825 9.62995 22.2025 9.77995 21.9025C9.97995 21.4825 9.79995 20.9725 9.37995 20.7725L8.12995 20.1725L9.50995 19.5225C9.93995 19.3225 10.12 18.8125 9.91995 18.3825ZM15.85 22.9425L17.46 22.1825C17.88 21.9825 18.39 22.1625 18.59 22.5925C18.79 23.0125 18.6 23.5225 18.18 23.7225L15.24 25.1025C15.09 25.1725 14.91 25.1725 14.76 25.1025L11.82 23.7225C11.39 23.5225 11.21 23.0125 11.41 22.5925C11.61 22.1625 12.12 21.9825 12.54 22.1825L14.15 22.9425V20.8725C14.15 20.4025 14.53 20.0225 15 20.0225C15.47 20.0225 15.85 20.4025 15.85 20.8725V22.9425Z"/>
</svg>
