<svg className="brandLogo" viewBox="0 0 700 385" fill="none" xmlns="http://www.w3.org/2000/svg">
<path d="M226.27 0C245.369 0.41871 266.885 8.0363 284.302 15.4262C284.302 12.0765 283.824 6.53776 285.661 3.74635C288.577 -0.661122 295.79 -1.15329 299.081 3.09992C301.241 5.88398 301.19 9.88009 301.197 13.2224C301.204 15.8889 300.786 22.772 301.946 24.8508C302.931 26.6065 310.122 32.0717 312.149 33.7833C319.789 40.2035 320.663 41.5772 326.841 49.2168C338.668 63.8423 349.62 90.4928 349.679 109.452H351.148C351.332 89.0898 362.681 63.4309 375.25 47.7477C379.378 42.5983 385.659 36.1854 390.816 32.0717C392.939 30.3749 398.999 26.3273 399.924 24.1089C400.652 22.3606 400.358 13.4942 400.365 11.0187C400.372 8.20525 400.181 5.502 401.944 3.09992C404.677 -0.624393 411.362 -0.888841 414.469 2.51226C417.26 5.56811 416.526 11.4741 416.526 15.4262C433.436 8.25667 456.083 0.404019 474.558 0C472.288 4.81149 465.353 10.5559 461.467 14.6255L451.051 25.7103L429.961 46.9837C427.346 49.8632 417.907 59.141 416.967 61.7047C416.438 63.1297 416.526 65.3114 416.526 66.8467V115.329C416.519 117.885 416.702 120.376 415.138 122.55C412.221 126.686 404.861 126.561 401.944 122.55C400.174 120.074 400.372 117.437 400.365 114.594V77.1308L364.305 114.594L354.821 124.129L350.48 126.832L345.94 123.395L337.191 114.594L301.197 77.8654V113.86C301.182 117.202 301.101 120.618 298.685 123.24C295.225 127.016 288.379 126.186 285.661 121.911C284.14 119.509 284.309 116.585 284.302 113.86V66.1121C284.302 64.5769 284.39 62.3952 283.861 60.9701C282.7 57.8187 271.887 47.8211 268.875 44.8093L242.431 17.6299C237.568 12.767 229.575 5.66361 226.27 0ZM483.373 183.329C485.797 183.248 488.463 183.446 490.189 185.43C492.834 188.471 493.091 197.492 486.311 198.755C476.512 200.584 473.375 185.885 483.373 183.329ZM306.339 204.536C316.645 203.214 335.032 203.53 342.994 210.979C347.799 215.481 350.289 223.584 351.332 229.923C353.124 240.891 353.154 252.688 351.92 263.714C350.943 272.448 348.783 281.337 342.12 287.617C333.562 295.683 321.684 295.426 310.746 295.301C307.242 295.257 301.608 294.427 298.259 293.413C277.279 287.088 278.219 259.924 278.425 242.411C278.535 233.398 281.488 220.697 287.482 213.792C292.544 207.952 299.045 205.881 306.339 204.536ZM14.711 223.312V251.961V287.955C14.689 289.534 14.7918 292.01 13.4329 293.104C12.0812 294.192 2.64923 294.192 1.29761 293.104C-0.259701 291.848 0.0194386 288.322 0.0194386 286.486V218.905C0.0267843 215.614 0.0120928 211.493 2.01749 208.701C5.20557 204.272 16.3124 203.545 20.4334 206.828C22.3874 208.385 24.0696 212.191 25.098 214.497L31.6063 229.923L41.8905 255.634L52.3215 229.189L58.3671 214.497C59.4836 211.889 60.9601 208.554 63.2667 206.828C67.0057 204.029 78.6414 203.875 81.4916 208.048C83.1371 210.45 83.0195 213.909 83.0269 216.701V274.733V287.955C83.0049 289.534 83.1077 292.01 81.7487 293.104C80.4926 294.118 75.9015 293.861 74.2119 293.832C68.2251 293.722 68.3427 291.79 68.3353 286.486V245.349C68.3353 239.95 68.923 228.711 67.6007 224.047C66.8074 228.425 63.2079 237.225 61.4303 241.677L50.8523 268.121C48.6339 273.653 45.6442 280.22 38.2469 276.621C34.1774 274.637 31.79 266.38 30.1372 262.245L20.4481 238.004L14.711 223.312ZM150.608 205.271C154.509 204.771 160.584 204.801 163.353 208.055C165.329 210.361 169.913 224.664 171.176 228.454L186.375 273.263L191.186 287.22C191.612 288.917 192.171 291.812 190.569 293.082C189.409 294.001 186.588 293.832 185.133 293.832H182.195C180.821 293.802 179.198 293.839 177.986 293.082C176.252 291.995 175.415 289.079 174.71 287.22C173.556 284.201 170.111 272.331 168.458 270.766C167.18 269.547 165.476 269.627 163.831 269.591H143.997C142.374 269.591 139.803 269.429 138.429 270.34C136.776 271.434 136.034 274.387 135.424 276.202C134.337 279.449 131.12 290.879 128.997 292.656C127.586 293.846 125.897 293.795 124.163 293.832H121.225C119.807 293.832 117.016 294.015 115.892 293.104C114.415 291.9 114.79 289.564 115.172 287.955L119.984 273.998L137.981 222.578C141.007 214.585 140.985 207.166 150.608 205.271ZM548.75 241.677C551.813 241.677 557.102 242.037 559.761 240.714C562.883 239.15 565.197 234.999 567.115 232.127L580.337 212.293C584.509 206.042 585.633 204.176 593.559 205.374C594.639 205.535 596.689 205.741 597.526 206.431C600.457 208.856 595.506 215.246 594.052 217.435L580.579 237.269L574.776 246.084C573.564 249.463 578.141 254.436 580.029 257.103L596.74 282.078C598.202 284.268 602.301 289.454 600.824 292.135C599.546 294.441 593.721 293.861 591.356 293.832C589.997 293.81 588.337 293.832 587.073 293.288C584.061 292.003 579.162 283.621 577.156 280.609L566.417 264.449C564.801 261.9 562.244 257.22 559.644 255.758C557.396 254.502 551.497 254.899 548.75 254.899V287.22C548.75 288.682 548.919 291.488 548.001 292.656C546.524 294.522 536.872 294.302 535.234 292.656C533.823 291.246 534.066 288.352 534.059 286.486V225.516V211.559C534.095 209.708 534.022 207.592 535.755 206.431C537.261 205.432 541.713 205.653 543.608 205.682C548.633 205.778 548.721 206.835 548.75 211.559V241.677ZM646.449 269.591C645.582 275.195 643.129 280.411 641.307 285.751C640.705 287.514 639.596 291.43 638.376 292.678C637.157 293.92 635.563 293.802 633.961 293.832H631.023C629.209 293.832 626.211 294.067 624.764 292.656C623.42 291.15 624.147 288.947 624.764 287.22L629.128 273.998L647.411 221.843C650.842 212.191 651.327 204.272 664.079 205.014C666.187 205.139 669.566 205.69 671.271 206.953C674.591 209.436 677.603 220.543 679.013 224.781L693.705 267.387L700 286.486V293.832C696.694 293.832 688.291 294.765 686.109 292.135L680.012 276.202C679.358 274.38 678.66 271.449 676.993 270.34C675.619 269.429 673.048 269.591 671.425 269.591H646.449ZM227.967 206.431C230.582 205.44 239.088 204.764 240.837 207.379C241.858 208.922 241.696 211.941 241.696 213.763V282.813C241.674 295.507 239.632 304.02 227.004 309.28C223.207 310.955 212.643 314.407 210.55 309.28C210.197 308.347 210.153 307.245 210.124 306.32C209.779 296.719 215.868 300.715 221.789 296.182C225.932 293.009 226.262 289.05 226.343 284.282V226.985V208.665C226.916 207.144 227.048 207.416 227.967 206.431ZM392.512 206.431C395.128 205.44 403.634 204.764 405.382 207.379C406.403 208.922 406.242 211.941 406.242 213.763V263.714C406.242 267.211 405.294 277.149 407.939 279.331C409.746 280.822 412.831 280.609 415.057 280.609H439.298C441.017 280.624 443.331 280.455 444.631 281.785C446.409 283.599 446.409 290.842 444.631 292.656C443.235 294.081 440.422 293.824 438.563 293.832H409.18C404.795 293.832 398.962 294.463 395.252 291.848C391.131 288.939 390.838 284.473 390.889 279.875V226.25V208.665C391.462 207.144 391.594 207.416 392.512 206.431ZM478.774 206.409C480.948 205.469 489.859 204.859 491.438 206.858C492.356 208.026 492.188 210.832 492.188 212.293V274.733V288.69C492.158 290.122 492.261 292.091 491.012 293.082C489.844 294.001 487.038 293.832 485.576 293.832H482.638C477.613 293.736 477.525 292.678 477.496 287.955V229.189V213.028C477.503 210.281 477.129 208.709 478.774 206.409ZM312.216 216.818C309.196 217.377 306.868 217.619 304.135 219.169C292.037 226.059 293.712 245.107 293.851 257.103C293.925 263.435 295.423 272.859 299.882 277.598C304.429 282.431 313.259 283.371 319.561 282.688C334.87 281.028 337.169 265.991 337.191 253.43C337.206 243.601 338.087 224.965 328.362 219.294C325.504 217.626 319.958 216.863 316.623 216.818H312.216ZM153.546 220.374L147.141 238.738L141.793 256.368H165.3L153.546 220.374ZM662.61 220.374L657.96 233.596L650.857 256.368H674.363L666.525 231.392L662.61 220.374ZM260.795 384.92V340.11C260.795 338.648 260.626 335.842 261.544 334.674C262.991 332.853 268.111 333.146 269.191 335.284C269.713 336.327 269.61 338.891 269.61 340.11V354.802H290.913V341.579C290.913 340.154 290.759 336.43 291.332 335.284C292.411 333.146 297.531 332.853 298.978 334.674C299.897 335.842 299.728 338.648 299.728 340.11V384.92H290.913V362.882H269.61V384.92H260.795ZM318.092 384.92C318.371 379.138 320.671 374.856 322.5 369.493L331.454 343.783C333.629 338.068 334.231 333.279 341.599 333.543C348.034 333.771 348.724 340.198 350.414 345.252L358.744 369.493C360.757 375.275 362.762 378.587 362.902 384.92L354.601 384.192L348.636 372.446L337.926 371.697L332.358 372.446L326.43 384.192L318.092 384.92ZM413.588 384.92H390.081C387.319 384.912 383.866 385.302 382.228 382.547C380.855 380.233 381.266 373.159 381.266 370.228V340.11C381.266 338.685 381.082 335.908 381.993 334.777C383.33 333.124 388.017 333.124 389.354 334.777C390.265 335.908 390.081 338.685 390.081 340.11V371.697C390.191 377.684 392.123 377.566 397.427 377.574H408.445C409.878 377.603 411.847 377.5 412.838 378.749C413.808 379.976 413.588 383.348 413.588 384.92ZM440.767 384.92C432.709 384.92 431.328 385.595 431.217 379.777V340.845C431.239 336.518 431.475 332.808 437.079 333.609C441.222 334.204 440.76 337.569 440.767 340.845V364.351V384.92ZM340.864 343.049L334.253 363.617H347.475L340.864 343.049Z" fill="#C41A49"/>
</svg>
